<svg xmlns="http://www.w3.org/2000/svg" viewBox="0 0 1139.32 243.53"><defs><style>.cls-1{fill:#fff;}.cls-2{fill:#fbc100;}</style></defs><g id="Ebene_2" data-name="Ebene 2"><g id="hell-farbig_dunkler_bg" data-name="hell-farbig, dunkler bg"><path class="cls-1" d="M78.08,227.52l5-.67V188.91l-4.87-.44v-2.1h28.72l.8,7.92h-2.35l-1.28-5.38-17-.3v16.81l11.3-.19.72-4.46h2.19v11.74H99.15l-.72-4.63-11.3-.16v19.33l18.23-.44,2.52-6.46,2,.5-1.24,8.72H78.08Z"></path><path class="cls-1" d="M112.28,227.49l4.13-.5L126,214.28l-9.84-13.21-4.23-.41v-2.28h13.26v2.28l-4.32.38,6.12,9,1.55,2.3,1.42-2.25,6.2-9-4-.36v-2.28h11.52v2.28l-4.16.44-9.55,12.77L139.76,227l4.18.47v1.88H130.62v-1.88l4.4-.44c-3.07-4.63-5.73-8.23-5.9-8.5L127.3,216,126,218.1l-6.15,9,5.07.44v1.88H112.28Z"></path><path class="cls-1" d="M155.74,236.58v4.59l6.37.5v1.86H147.49v-1.86l4.27-.55V202.57l-4-1.47v-1.41l6.51-1.69,1.05.55v3.1a15.23,15.23,0,0,1,10.36-4.18c6.2,0,12.18,4.18,12.18,15.43,0,9.55-6.34,17.17-15.67,17.17a16,16,0,0,1-6.54-1.3Zm6.71-8.81c5.76,0,11.32-4.29,11.41-14.43.08-9.25-4.52-13.1-9.84-13.1a12.28,12.28,0,0,0-8.3,3.35l0,10.86v10.74C156.6,226.66,159.09,227.74,162.45,227.77Z"></path><path class="cls-1" d="M198.87,197.47c6.37-.11,10.5,4.18,10.66,11.52a25.7,25.7,0,0,1-.27,4.49H187.74v.3c-.14,9.22,5,13.38,11.16,13.38,3.54,0,7.48-1.08,9-2.13l.86,1.91c-2.16,1.94-7.15,3.1-11.33,3.1-8.92,0-13.79-6.34-13.79-16.06C183.67,204.5,190,197.61,198.87,197.47ZM205.3,211c.33-4.66-.56-8.67-3.72-10.36a7.71,7.71,0,0,0-3.76-.86c-5.07,0-9.28,3.77-10,11.22Z"></path><path class="cls-1" d="M215.46,227.49l4.88-.52v-24.4l-4.07-1.47v-1.41L222.8,198l1.06.52v3.88c1.58-1.91,6.62-4.57,10.35-4.57A13.11,13.11,0,0,1,237,198v4.27a11,11,0,0,0-4.41-.75,15.74,15.74,0,0,0-8.19,2.49V227l8.39.52v1.88H215.46Z"></path><path class="cls-1" d="M245.63,201.15H241.2v-1.66c3.13-.58,4.1-.5,4.87-1.91a34.36,34.36,0,0,0,1.39-6.59h2.1v7.48H260v2.68H249.56v16.68c0,7.45.44,9.27,3.66,9.27a13.38,13.38,0,0,0,6.31-1.8l.69,2c-1.66,1.83-5.92,2.77-8.47,2.77-4,0-6.12-2.11-6.12-7.73Z"></path><path class="cls-1" d="M280,197.47c6.37-.11,10.5,4.18,10.66,11.52a25.7,25.7,0,0,1-.27,4.49H268.9v.3c-.14,9.22,5,13.38,11.16,13.38,3.54,0,7.48-1.08,9-2.13l.85,1.91c-2.16,1.94-7.14,3.1-11.32,3.1-8.92,0-13.79-6.34-13.79-16.06C264.83,204.5,271.17,197.61,280,197.47ZM286.46,211c.33-4.66-.56-8.67-3.72-10.36a7.71,7.71,0,0,0-3.76-.86c-5.07,0-9.28,3.77-10,11.22Z"></path><path class="cls-1" d="M311.47,227.49l5.65-.47V201.79h-6.26v-1.66l6.26-1.22V196c0-8.25,6.15-13.21,11-13.21a11,11,0,0,1,4,.47v3.58a10.64,10.64,0,0,0-4.76-.81c-3.1,0-6.2,1.3-6.2,8.42v4.46h9.05v2.88h-9.05v25.26l6.67.44v1.88H311.47Z"></path><path class="cls-1" d="M337.29,201.21l-2.86-.55V199l6-1.16.83.5v19.08c0,6.76,1,9.67,6.62,9.67,4.32,0,8.14-2.77,9.22-3.77V201.49l-3.46-.61V199.1l6.62-1.24.8.47v29.08h3.49v1.69A13.65,13.65,0,0,1,360,230c-1.64,0-2.55-.67-2.55-2.11v-2.49c-3.6,3-7.4,4.52-11.19,4.52-8.7,0-8.92-5.68-9-13.35Zm1.82-13.88a3.29,3.29,0,0,1,3.22-3.07,2.49,2.49,0,0,1,2.74,2.63,3.13,3.13,0,0,1-3.24,3A2.57,2.57,0,0,1,339.11,187.33Zm12.61,0a3.28,3.28,0,0,1,3.21-3.07,2.49,2.49,0,0,1,2.74,2.63,3.13,3.13,0,0,1-3.24,3A2.56,2.56,0,0,1,351.72,187.33Z"></path><path class="cls-1" d="M370.08,227.49,375,227v-24.4l-4.07-1.47v-1.41l6.53-1.69,1.06.52v3.88c1.57-1.91,6.61-4.57,10.35-4.57a12.93,12.93,0,0,1,2.74.19v4.27a11,11,0,0,0-4.4-.75A15.81,15.81,0,0,0,379,204V227l8.4.52v1.88H370.08Z"></path><path class="cls-1" d="M411,227.52l4.68-.67v-38l-4.6-.42v-2.1H424.4v2.1l-4.65.42v38l4.87.67v1.85H411Z"></path><path class="cls-1" d="M432.13,227.49l4-.5V202.57L432,201.1v-1.41l6.56-1.69,1,.52v3.82c2.49-2,7.89-4.45,11.69-4.59,6.95-.2,9.47,3.32,9.47,13.26v16l4.51.47v1.88H452.51v-1.88l4.27-.47V211.51c0-7.86-1.69-10.88-7.26-10.69a19.85,19.85,0,0,0-9.41,3.44V227l4.37.47v1.88H432.13Z"></path><path class="cls-1" d="M470.08,201.07l-3-.44v-2.25h11.58v2.25l-4,.47,7.12,17.34,2.6,7.56,2.55-7.34,6.34-17.53-4-.47v-2.28h10.66v2.25l-3.24.52L485.31,230h-2.88Z"></path><path class="cls-1" d="M518,197.47c6.37-.11,10.5,4.18,10.66,11.52a24.63,24.63,0,0,1-.28,4.49H506.84v.3c-.14,9.22,5,13.38,11.16,13.38,3.54,0,7.47-1.08,9-2.13l.85,1.91c-2.16,1.94-7.14,3.1-11.32,3.1-8.92,0-13.8-6.34-13.8-16.06C502.76,204.5,509.11,197.61,518,197.47ZM524.39,211c.34-4.66-.55-8.67-3.71-10.36a7.71,7.71,0,0,0-3.76-.86c-5.07,0-9.28,3.77-10,11.22Z"></path><path class="cls-1" d="M536.06,221.65h2l.88,3.76a10.81,10.81,0,0,0,6.7,2.28c4.52.16,8-1.56,8-5.68,0-4-4.45-5.26-8.58-7.09-4.4-2-8.7-4.41-8.61-9.28.11-5.57,5.9-8,10.83-8.17a16.86,16.86,0,0,1,8.66,2V205h-1.88l-.94-3.46a8.36,8.36,0,0,0-5.65-1.91c-4.49,0-7.12,2.13-7.17,5.29-.06,3.6,3.57,5,7.78,7s9.39,3.71,9.39,9.22c0,5.85-5,8.92-11.77,8.92a20.42,20.42,0,0,1-9.64-2.35Z"></path><path class="cls-1" d="M568.19,201.15h-4.43v-1.66c3.13-.58,4.1-.5,4.87-1.91A34.36,34.36,0,0,0,570,191h2.1v7.48h10.39v2.68H572.12v16.68c0,7.45.45,9.27,3.66,9.27a13.38,13.38,0,0,0,6.31-1.8l.69,2c-1.66,1.83-5.92,2.77-8.47,2.77-4,0-6.12-2.11-6.12-7.73Z"></path><path class="cls-1" d="M588.38,227.52l3.94-.53V202.57l-4.08-1.47v-1.44l6.6-1.66,1,.52v3.82c2.58-2.07,7.79-4.43,11.64-4.51s6.28,1,7.56,3.88a23.6,23.6,0,0,1,11.32-3.88c6.9-.22,9.23,3.32,9.23,13.24v16l4.68.5v1.85H627.63v-1.85l4-.5V211.76c0-7.59-1.06-11.08-7.12-10.91a19.85,19.85,0,0,0-8.72,2.74,34.49,34.49,0,0,1,.66,7.2V227l4.38.5v1.85h-12.6v-1.85l4.23-.53V211.24c0-7.37-1-10.53-6.84-10.36a18.8,18.8,0,0,0-9.22,3.38v7.11c0,3.74,0,11.39,0,15.65l4.38.5v1.85H588.38Z"></path><path class="cls-1" d="M659.93,197.47c6.37-.11,10.5,4.18,10.66,11.52a24.63,24.63,0,0,1-.28,4.49H648.8v.3c-.14,9.22,5,13.38,11.16,13.38,3.54,0,7.47-1.08,9-2.13l.85,1.91c-2.16,1.94-7.14,3.1-11.32,3.1-8.92,0-13.8-6.34-13.8-16.06C644.72,204.5,651.07,197.61,659.93,197.47ZM666.35,211c.34-4.66-.55-8.67-3.71-10.36a7.71,7.71,0,0,0-3.76-.86c-5.07,0-9.28,3.77-10,11.22Z"></path><path class="cls-1" d="M677.38,227.49l4-.5V202.57l-4.07-1.47v-1.41l6.56-1.69,1,.52v3.82c2.49-2,7.89-4.45,11.69-4.59,7-.2,9.47,3.32,9.47,13.26v16l4.51.47v1.88H697.76v-1.88L702,227V211.51c0-7.86-1.69-10.88-7.26-10.69a19.89,19.89,0,0,0-9.41,3.44V227l4.37.47v1.88H677.38Z"></path><path class="cls-1" d="M719.79,201.15h-4.43v-1.66c3.13-.58,4.1-.5,4.87-1.91a34.36,34.36,0,0,0,1.39-6.59h2.1v7.48h10.39v2.68H723.72v16.68c0,7.45.44,9.27,3.66,9.27a13.38,13.38,0,0,0,6.31-1.8l.69,2c-1.66,1.83-5.92,2.77-8.47,2.77-4,0-6.12-2.11-6.12-7.73Z"></path><path class="cls-1" d="M765.16,208.38c-2.52-3.29-5.43-7.14-5.51-11.6-.14-6.73,4.51-10.58,10.25-10.58,6.28,0,9.22,4,9.33,8.83.11,5.79-4.35,10.58-9.28,13.41a166.84,166.84,0,0,0,11.44,12.68l1.25,1.14a13.87,13.87,0,0,0,1.38-6.48c0-3.88-.94-6.29-1.3-6.84h3.88a16.58,16.58,0,0,1,1,6,15.58,15.58,0,0,1-2.8,9.19c2.63,2.08,4.54,2.91,7,3V229a8,8,0,0,1-3.69.25,13.49,13.49,0,0,1-5.87-2.63c-2.85,2.52-7.67,3.68-11.3,3.68-5.67,0-15.17-2-15.17-10.74C755.83,213.56,760.56,210.68,765.16,208.38Zm6.06,19.31c3.3,0,7-.61,9.12-2.64-.23-.19-.45-.36-.64-.55a123,123,0,0,1-13.27-14.4c-4.68,2.44-6.78,4.76-6.78,9C759.65,224.67,765.08,227.69,771.22,227.69Zm4.55-32c-.06-3.07-1.36-7.28-6.35-7.28-2.85,0-6.28,2-6.2,7,.08,5.4,3.38,9.09,5.35,11.36C773.11,204.48,775.85,200.57,775.77,195.67Z"></path><path class="cls-1" d="M812.33,227.52l4.68-.67v-38l-4.59-.42v-2.1h13.35v2.1l-4.66.42v38l4.88.67v1.85H812.33Z"></path><path class="cls-1" d="M833.55,227.52l3.93-.53V202.57l-4.07-1.47v-1.44L840,198l1,.52v3.82c2.58-2.07,7.78-4.43,11.63-4.51s6.29,1,7.56,3.88a23.68,23.68,0,0,1,11.33-3.88c6.9-.22,9.22,3.32,9.22,13.24v16l4.68.5v1.85H872.79v-1.85l4-.5V211.76c0-7.59-1.06-11.08-7.12-10.91a19.94,19.94,0,0,0-8.73,2.74,33.74,33.74,0,0,1,.67,7.2V227l4.37.5v1.85h-12.6v-1.85l4.24-.53V211.24c0-7.37-1-10.53-6.84-10.36a18.77,18.77,0,0,0-9.22,3.38v7.11c0,3.74,0,11.39,0,15.65l4.38.5v1.85H833.55Z"></path><path class="cls-1" d="M890.89,227.52l3.93-.53V202.57l-4.07-1.47v-1.44l6.59-1.66,1,.52v3.82c2.57-2.07,7.78-4.43,11.63-4.51s6.29,1,7.56,3.88a23.68,23.68,0,0,1,11.33-3.88c6.89-.22,9.22,3.32,9.22,13.24v16l4.68.5v1.85H930.13v-1.85l4-.5V211.76c0-7.59-1.05-11.08-7.11-10.91a19.94,19.94,0,0,0-8.73,2.74,33.74,33.74,0,0,1,.67,7.2V227l4.37.5v1.85h-12.6v-1.85l4.24-.53V211.24c0-7.37-1-10.53-6.84-10.36a18.77,18.77,0,0,0-9.22,3.38v7.11c0,3.74,0,11.39,0,15.65l4.37.5v1.85H890.89Z"></path><path class="cls-1" d="M961.94,197.47c9.69-.11,13.7,7.62,13.65,15.93-.08,9.77-6.23,16.61-14.37,16.64-10.17,0-14.07-8.12-14-16.76C947.4,203.51,954.15,197.55,961.94,197.47Zm9.38,16.17c0-7.47-2.68-13.79-9.66-13.9-6.4-.11-10.14,5-10.14,13.3,0,7.78,2.88,14.42,9.89,14.59C967.81,227.77,971.32,222.78,971.32,213.64Z"></path><path class="cls-1" d="M984.43,187.83l-4.74-.69v-1.88l7.76-.83,1,.47v16.23a15.59,15.59,0,0,1,9.77-3.69c6.29,0,12.36,4.13,12.36,15.18,0,9.72-6.35,17.53-15.68,17.53-5.21,0-9.66-1.36-10.44-2.16Zm10.94,40c5.62,0,11.11-4.62,11.19-14.26s-4.82-13.18-10-13.18a12.56,12.56,0,0,0-8.17,3v22.24C989,227.21,992.18,227.85,995.37,227.85Z"></path><path class="cls-1" d="M1017.37,227.49l4.56-.44V202.48l-4-1.38v-1.41l6.78-1.69,1,.52V227l4.63.47v1.88h-13Zm2.79-40a3.32,3.32,0,0,1,3.24-3.18,2.53,2.53,0,0,1,2.77,2.71,3.21,3.21,0,0,1-3.27,3.16A2.67,2.67,0,0,1,1020.16,187.5Z"></path><path class="cls-1" d="M1036.2,227.49l4.63-.47V187.94l-4.52-.66v-1.91l7.54-.94,1,.58v42l4.88.44v1.88H1036.2Z"></path><path class="cls-1" d="M1055.62,227.49l4.57-.44V202.48l-4-1.38v-1.41L1063,198l1,.52V227l4.62.47v1.88h-13Zm2.8-40a3.32,3.32,0,0,1,3.24-3.18,2.53,2.53,0,0,1,2.77,2.71,3.22,3.22,0,0,1-3.27,3.16A2.67,2.67,0,0,1,1058.42,187.5Z"></path><path class="cls-1" d="M1088.72,197.47c6.37-.11,10.49,4.18,10.66,11.52a24.63,24.63,0,0,1-.28,4.49h-21.52v.3c-.13,9.22,5,13.38,11.16,13.38,3.55,0,7.48-1.08,9-2.13l.86,1.91c-2.16,1.94-7.14,3.1-11.32,3.1-8.92,0-13.8-6.34-13.8-16.06C1073.51,204.5,1079.86,197.61,1088.72,197.47Zm6.42,13.52c.33-4.66-.55-8.67-3.71-10.36a7.73,7.73,0,0,0-3.77-.86c-5.06,0-9.27,3.77-10,11.22Z"></path><path class="cls-1" d="M1106.17,227.49l4-.5V202.57l-4.07-1.47v-1.41l6.56-1.69,1,.52v3.82c2.49-2,7.89-4.45,11.69-4.59,7-.2,9.47,3.32,9.47,13.26v16l4.51.47v1.88h-12.77v-1.88l4.27-.47V211.51c0-7.86-1.69-10.88-7.26-10.69a19.85,19.85,0,0,0-9.41,3.44V227l4.37.47v1.88h-12.35Z"></path><path class="cls-2" d="M32.08,78.73,7.19,109.06,0,104.4,20.61,78.92,0,53.65,7.19,48.2Zm16.08-15q6.6,7.77,12.64,15.75L35.71,109.45l-7-4.66L49.13,78.73,28.71,53.65l6-5.45Q41.55,56,48.16,63.76Z"></path><path class="cls-1" d="M166.27,29.88v9.33H93.94V73.82h44.72v9.53H93.94v46.09H83.24V29.88Z"></path><path class="cls-1" d="M277.89,29.88v9.33H204.77V73.44h39.09V83H204.77V120.1h76.62v9.34H194.47V29.88Z"></path><path class="cls-1" d="M323,29.49v91h65.72v9H312.3V29.49Z"></path><path class="cls-1" d="M430.92,29.49v100h-10.5V29.49Z"></path><path class="cls-1" d="M462,29.49h12.64L507,68.38l34.22-38.89h12.25L513.75,75.77l-.39,1.36,43.56,52.31H545.25L507.14,84.91l-37.33,44.53H457l44.14-52.31q-9.14-12.25-19-24.21T462,29.68Z"></path><path class="cls-1" d="M920.35,29.49V68.05h58.36V29.49h16.7v100h-16.7V85.77H920.35v43.67H903.43V29.49Z"></path><path class="cls-1" d="M1053.46,29.88,1087.19,84l33.33-54.11h18.59v99.56h-15.73l-.19-71.53-36.59,56.94L1051,57.91v71.53h-15.5V29.88Z"></path><path class="cls-1" d="M816.17,27.6c-31.18,0-56.46,22.76-56.46,50.84s25.28,50.85,56.46,50.85,56.47-22.77,56.47-50.85S847.36,27.6,816.17,27.6Zm.29,85.94c-21.61,0-39.14-15.78-39.14-35.24s17.53-35.25,39.14-35.25S855.6,58.83,855.6,78.3,838.08,113.54,816.46,113.54Z"></path><rect class="cls-1" x="783.39" width="20.35" height="19.35" rx="9.68"></rect><rect class="cls-1" x="830.41" width="20.35" height="19.35" rx="9.68"></rect><path class="cls-1" d="M721.79,78.08c13.81-6.33,22.25-44.49-17.86-48.2-.38,0-9.07,0-9.46,0H645.23v99.56l64.2-.07c9.83,0,14.76-3,18.58-5.42C741.35,115.54,744.93,90,721.79,78.08ZM660.55,43.61s23.86-.14,32-.14c13.5,0,24.69,1.55,24.69,16,0,12.23-14.24,12.33-25.8,12.33-8.38,0-31.2-.17-31.2-.17Zm38.3,72.51c-8.38,0-38.42.33-38.42.33l-.33-29.33,37.58.1c17.75-.68,24.94,4.39,24.25,16.82C721.18,117.54,707.51,116.12,698.85,116.12Z"></path></g></g></svg>